<?xml version="1.0" encoding="UTF-8"?><svg id="a" xmlns="http://www.w3.org/2000/svg" width="925.0845855032" height="297.376146789" viewBox="0 0 925.0845855032 297.376146789"><path d="M210.9570723263,1.0620213815c-.0139358613,0-.0252308159.0112949546-.0252308159.0252308158v199.5008328545c0,4.7174718646-4.0585859699,8.5100169615-8.8655642553,8.0668321962-4.210214641-.388132019-7.3386732886-4.101165511-7.3386732886-8.3292164293V1.0872521973c0-.0139358612-.0112949546-.0252308158-.0252308158-.0252308158h-87.5677515308c-.0139358613,0-.0252308159.0112949546-.0252308159.0252308158v199.5008328545c0,4.7174718646-4.0587891166,8.5100575908-8.865767402,8.0668321962-4.2101740117-.3881726483-7.33859203-4.1012061404-7.33859203-8.3292570586V1.1392577437c0-.0143827839-.0121075413-.0260027732-.0264903252-.0254745918C42.2779765855,2.9203258182,3.3037606415,43.019405478,3.3037606415,92.0462529021v113.2357796304c0,50.2725021472,40.7539026212,91.0264047684,91.0264047684,91.0264047684h204.1947803352c.0139358612,0,.0252308158-.0112949546.0252308158-.0252308158V1.0872521973c0-.0139358612-.0112949546-.0252308158-.0252308158-.0252308158h-87.5678734187Z" fill="#0f0f0f"/><path d="M522.5602483061,1.0620213815c-.0138952319,0-.0252714452.0112949546-.0252714452.0252308158v199.5008328545c0,4.4977890606-3.672404159,8.1547947023-8.1998120034,8.1015296467-4.4759711087-.0526556157-7.9874831087-3.8989126909-7.9874831087-8.3752494637V1.0872521973c0-.0139358612-.0112949546-.0252308158-.0252714452-.0252308158h-87.5677921601c-.0139764906,0-.0252714452.0112949546-.0252714452.0252308158v199.5008328545c0,4.7175124939-4.0589110046,8.5100982202-8.8659299193,8.0668321962-4.2101740117-.3882132776-7.3385107713-4.1012467697-7.3385107713-8.3292570586V1.0872521973c0-.0139358612-.0112949546-.0252308158-.0252308159-.0252308158h-87.5676296428c-.0139358613,0-.0252714452.0112949546-.0252714452.0252308158v295.1959542877c0,.0139358612.0113355839.0252308158.0252714452.0252308158h295.195873029c.0138952319,0,.0251901865-.0112949546.0251901865-.0252308158V1.0872521973c0-.0139358612-.0112949546-.0252308158-.0251901865-.0252308158h-87.5676702721Z" fill="#0f0f0f"/><path d="M921.7541720192,104.8738272026h-207.6227990557c-4.4732895728,0-8.1011639827-3.6279150392-8.1011639827-8.101204612,0-4.4733302021,3.6278744099-8.1012452413,8.1011639827-8.1012452413h207.5495849974c.0199896319,0,.0266528425-.0132857919.0266528425-.0266122132-1.803942389-48.60064572-41.9039565235-87.5756742507-90.9307226889-87.5756742507h-204.2211487724c-.0133264213,0-.0266528425.0133264213-.0266528425.0266122132v191.3737473573c0,.0133264213.0133264213.0199896319.0266528425.0199896319h199.5016454411c4.7195033313,0,8.5138767482,4.0605768073,8.0678479295,8.866742506-.386059923,4.2137087637-4.1004748124,7.3423299286-8.3275506266,7.3423299286h-199.241942744c-.0133264213,0-.0266528425.0066632106-.0266528425.0199896319v87.5690110401c0,.0133264213.0133264213.0266122132.0266528425.0266122132h204.1945771885c50.2714051552,0,91.030508331-40.7523587065,91.030508331-91.0238451204v-100.3898408713c0-.0132857919-.0133264213-.0266122132-.0266528425-.0266122132Z" fill="#0f0f0f"/></svg>